<svg width="1512" height="817" viewBox="0 0 1512 817" fill="none" xmlns="http://www.w3.org/2000/svg">
<rect width="1514.78" height="817" fill="#0077E4"/>
<path d="M1184.28 244.999C1267.28 264.044 1354.45 271.22 1426.27 307.409C1501.53 345.331 1567.82 394.546 1603.83 456.4C1640.46 519.303 1638.13 589.196 1630.06 657.419C1621.55 729.216 1623.19 810.709 1555.72 862.72C1488.48 914.551 1376.74 909.136 1282.18 925.569C1199.97 939.855 1120.34 950.881 1035.94 953.048C935.04 955.639 815.612 987.954 738.785 939.523C661.475 890.787 699.257 795.941 671.94 723.588C647.781 659.598 584.165 604.367 587.181 537.968C590.335 468.51 638.184 405.818 689.026 347.367C744.073 284.081 795.952 205.532 893.958 185.274C992.374 164.931 1086.68 222.606 1184.28 244.999Z" fill="#022EA0"/>
</svg>
