<svg width="756" height="637" viewBox="0 0 756 637" fill="none" xmlns="http://www.w3.org/2000/svg">
<path d="M400.535 21.957C471.986 18.8353 558.309 -23.2331 612.756 18.0087C669.805 61.2214 626.046 150.113 652.164 212.558C672.739 261.75 734.615 291.61 748.522 342.614C762.682 394.543 756.738 452.225 730.641 500.36C705.097 547.475 643.691 568.676 604.715 607.857C566.227 646.548 550.74 703.139 501.561 730.645C451.717 758.523 389.075 764.148 330.267 761.36C272.948 758.642 223.912 727.08 168.188 714.839C102.828 700.481 16.0626 727.641 -28.2638 682.6C-73.2524 636.887 -23.3148 561.489 -40.566 502.724C-56.169 449.572 -110.11 411.032 -123.715 357.449C-139.121 296.769 -148.279 231.318 -124.317 172.872C-99.8106 113.102 -54.0101 53.4215 11.4694 27.7327C78.1274 1.5815 154.669 35.9209 227.522 34.8394C286.026 33.9709 342.093 24.5102 400.535 21.957Z" fill="#022EA0"/>
</svg>
