<svg width="926" height="636" viewBox="0 0 926 636" fill="none" xmlns="http://www.w3.org/2000/svg">
<path d="M596.102 63.9989C678.957 83.0443 765.965 90.2203 837.654 126.409C912.778 164.331 978.943 213.546 1014.89 275.4C1051.45 338.303 1049.13 408.196 1041.07 476.419C1032.58 548.216 1034.22 629.709 966.865 681.72C899.748 733.551 788.216 728.136 693.832 744.569C611.772 758.855 532.282 769.881 448.036 772.048C347.324 774.639 228.116 806.954 151.43 758.523C74.261 709.787 111.974 614.941 84.7073 542.588C60.5925 478.598 -2.90651 423.367 0.103425 356.968C3.25198 287.51 51.0133 224.818 101.762 166.367C156.708 103.081 208.491 24.5316 306.318 4.27362C404.553 -16.069 498.683 41.6057 596.102 63.9989Z" fill="#022EA0"/>
</svg>
